<svg xmlns="http://www.w3.org/2000/svg" width="420" height="66"><path d="M154 0h21v66h-21V0zM0 0h21v66H0V0zM42 0h14v6h7v54h-7v6H42V0zM399 24h21v42h-21V24zM350 24h21v42h-21V24zM280 24h21v42h-21V24zM245 24h21v42h-21V24zM189 24h21v42h-21V24zM119 24h14v6h7v30h-7v6h-14V24zM84 24h14v42H84v-6h-7V30h7v-6z" fill="#5252FF"/><path d="M308 60h28v6h-28v-6zM308 24h28v6h-28v-6zM105 60h7v6h-7v-6zM28 60h7v6h-7v-6zM385 42h7v6h-7v-6zM308 42h7v6h-7v-6zM378 36h7v6h-7v-6zM224 36h7v6h-7v-6zM231 30h7v6h-7v-6zM217 30h7v6h-7v-6zM105 24h7v6h-7v-6zM28 0h7v6h-7V0z" fill="#0000A5"/></svg>